<svg xmlns="http://www.w3.org/2000/svg" width="598" height="527" viewBox="0 0 598 527">
  <g fill="none" fill-rule="evenodd">
    <rect width="598" height="527" fill="#612D62"/>
    <g transform="translate(40 38)">
      <g fill="#FFFFFF" transform="translate(0 272)">
        <path d="M42.085 37.63L33.715 17.2 25.345 37.63 42.085 37.63zM27.505.55L40.285.55 67.285 64 52.795 64 47.035 49.87 20.395 49.87 14.635 64 .505 64 27.505.55zM101.575 51.49C104.395014 51.49 106.974988 51.0400045 109.315 50.14 111.655012 49.2399955 113.649992 47.9500084 115.3 46.27 116.950008 44.5899916 118.239995 42.6100114 119.17 40.33 120.100005 38.0499886 120.565 35.5000141 120.565 32.68L120.565 32.5C120.565 29.7399862 120.100005 27.1900117 119.17 24.85 118.239995 22.5099883 116.950008 20.5000084 115.3 18.82 113.649992 17.1399916 111.655012 15.8350046 109.315 14.905 106.974988 13.9749953 104.395014 13.51 101.575 13.51L90.865 13.51 90.865 51.49 101.575 51.49zM77.005 1L101.575 1C106.495025 1 111.009979 1.79499205 115.12 3.385 119.230021 4.97500795 122.769985 7.1799859 125.74 10 128.710015 12.8200141 131.004992 16.1349809 132.625 19.945 134.245008 23.755019 135.055 27.8799778 135.055 32.32L135.055 32.5C135.055 36.9400222 134.245008 41.0799808 132.625 44.92 131.004992 48.7600192 128.710015 52.0899859 125.74 54.91 122.769985 57.7300141 119.230021 59.9499919 115.12 61.57 111.009979 63.1900081 106.495025 64 101.575 64L77.005 64 77.005 1zM147.385 1L194.905 1 194.905 13.33 161.155 13.33 161.155 26.11 190.855 26.11 190.855 38.44 161.155 38.44 161.155 51.67 195.355 51.67 195.355 64 147.385 64 147.385 1zM207.685 1L221.545 1 221.545 51.4 252.955 51.4 252.955 64 207.685 64 207.685 1zM299.575 37.63L291.205 17.2 282.835 37.63 299.575 37.63zM284.995.55L297.775.55 324.775 64 310.285 64 304.525 49.87 277.885 49.87 272.125 64 257.995 64 284.995.55zM334.495 1L347.275 1 376.795 39.79 376.795 1 390.475 1 390.475 64 378.685 64 348.175 23.95 348.175 64 334.495 64 334.495 1zM420.265 13.78L401.095 13.78 401.095 1 453.295 1 453.295 13.78 434.125 13.78 434.125 64 420.265 64 420.265 13.78zM463.915 1L511.435 1 511.435 13.33 477.685 13.33 477.685 26.11 507.385 26.11 507.385 38.44 477.685 38.44 477.685 51.67 511.885 51.67 511.885 64 463.915 64 463.915 1zM227.42 93.56C229.286676 93.56 230.759995 93.093338 231.84 92.16 232.920005 91.226662 233.46 90.026674 233.46 88.56L233.46 88.48C233.46 86.8266584 232.913339 85.5800042 231.82 84.74 230.726661 83.8999958 229.260009 83.48 227.42 83.48L221.7 83.48 221.7 93.56 227.42 93.56zM216.78 79L227.82 79C229.446675 79 230.919993 79.2199978 232.24 79.66 233.560007 80.1000022 234.679995 80.7333292 235.6 81.56 236.520005 82.3866708 237.226664 83.3733276 237.72 84.52 238.213336 85.6666724 238.46 86.9466596 238.46 88.36L238.46 88.44C238.46 90.0133412 238.16667 91.3933274 237.58 92.58 236.99333 93.7666726 236.193338 94.759996 235.18 95.56 234.166662 96.360004 232.980007 96.9666646 231.62 97.38 230.259993 97.7933354 228.806674 98 227.26 98L221.7 98 221.7 107 216.78 107 216.78 79zM256.94 102.96C258.326674 102.96 259.599994 102.700003 260.76 102.18 261.920006 101.659997 262.913329 100.953338 263.74 100.06 264.566671 99.1666622 265.213331 98.120006 265.68 96.92 266.146669 95.719994 266.38 94.4400068 266.38 93.08L266.38 93C266.38 91.6399932 266.146669 90.3533394 265.68 89.14 265.213331 87.9266606 264.560004 86.8733378 263.72 85.98 262.879996 85.0866622 261.873339 84.373336 260.7 83.84 259.526661 83.306664 258.246674 83.04 256.86 83.04 255.473326 83.04 254.200006 83.2999974 253.04 83.82 251.879994 84.3400026 250.886671 85.0466622 250.06 85.94 249.233329 86.8333378 248.586669 87.879994 248.12 89.08 247.653331 90.280006 247.42 91.5599932 247.42 92.92L247.42 93C247.42 94.3600068 247.653331 95.6466606 248.12 96.86 248.586669 98.0733394 249.239996 99.1266622 250.08 100.02 250.920004 100.913338 251.926661 101.626664 253.1 102.16 254.273339 102.693336 255.553326 102.96 256.94 102.96zM256.86 107.48C254.699989 107.48 252.726676 107.100004 250.94 106.34 249.153324 105.579996 247.620006 104.546673 246.34 103.24 245.059994 101.933327 244.060004 100.406675 243.34 98.66 242.619996 96.9133246 242.26 95.0533432 242.26 93.08L242.26 93C242.26 91.0266568 242.619996 89.1666754 243.34 87.42 244.060004 85.6733246 245.073327 84.1400066 246.38 82.82 247.686673 81.4999934 249.233324 80.4533372 251.02 79.68 252.806676 78.9066628 254.779989 78.52 256.94 78.52 259.100011 78.52 261.073324 78.8999962 262.86 79.66 264.646676 80.4200038 266.179994 81.4533268 267.46 82.76 268.740006 84.0666732 269.739996 85.5933246 270.46 87.34 271.180004 89.0866754 271.54 90.9466568 271.54 92.92L271.54 93C271.54 94.9733432 271.180004 96.8333246 270.46 98.58 269.739996 100.326675 268.726673 101.859993 267.42 103.18 266.113327 104.500007 264.566676 105.546663 262.78 106.32 260.993324 107.093337 259.020011 107.48 256.86 107.48zM289.62 92.88C291.380009 92.88 292.779995 92.4600042 293.82 91.62 294.860005 90.7799958 295.38 89.6400072 295.38 88.2L295.38 88.12C295.38 86.5999924 294.873338 85.4466706 293.86 84.66 292.846662 83.8733294 291.420009 83.48 289.58 83.48L282.42 83.48 282.42 92.88 289.62 92.88zM277.5 79L289.98 79C291.740009 79 293.299993 79.2466642 294.66 79.74 296.020007 80.2333358 297.153329 80.9199956 298.06 81.8 298.80667 82.5733372 299.379998 83.4666616 299.78 84.48 300.180002 85.4933384 300.38 86.6133272 300.38 87.84L300.38 87.92C300.38 89.0666724 300.213335 90.0999954 299.88 91.02 299.546665 91.9400046 299.08667 92.7533298 298.5 93.46 297.91333 94.1666702 297.213337 94.7666642 296.4 95.26 295.586663 95.7533358 294.686672 96.133332 293.7 96.4L301.26 107 295.46 107 288.58 97.24 282.42 97.24 282.42 107 277.5 107 277.5 79zM155.9125 147.15L146.8375 126.15 137.8375 147.15 155.9125 147.15zM142.7125 115.125L151.2625 115.125 174.3625 168 164.6125 168 159.2875 155.325 134.4625 155.325 129.0625 168 119.6125 168 142.7125 115.125zM182.3125 128.4L191.3875 128.4 191.3875 137.325C192.637506 134.324985 194.412488 131.925009 196.7125 130.125 199.012512 128.324991 201.912483 127.499999 205.4125 127.65L205.4125 137.25 204.8875 137.25C202.88749 137.25 201.062508 137.574997 199.4125 138.225 197.762492 138.875003 196.337506 139.849994 195.1375 141.15 193.937494 142.450007 193.012503 144.08749 192.3625 146.0625 191.712497 148.03751 191.3875 150.324987 191.3875 152.925L191.3875 168 182.3125 168 182.3125 128.4zM237.7375 151.425C236.587494 150.974998 235.225008 150.600002 233.65 150.3 232.074992 149.999999 230.412509 149.85 228.6625 149.85 225.812486 149.85 223.587508 150.399994 221.9875 151.5 220.387492 152.600006 219.5875 154.09999 219.5875 156L219.5875 156.15C219.5875 158.050009 220.324993 159.499995 221.8 160.5 223.275007 161.500005 225.087489 162 227.2375 162 228.737507 162 230.124994 161.800002 231.4 161.4 232.675006 160.999998 233.787495 160.437504 234.7375 159.7125 235.687505 158.987496 236.424997 158.112505 236.95 157.0875 237.475003 156.062495 237.7375 154.925006 237.7375 153.675L237.7375 151.425zM237.5125 168L237.5125 163.125C236.162493 164.725008 234.437511 166.074995 232.3375 167.175 230.23749 168.275005 227.687515 168.825 224.6875 168.825 222.78749 168.825 220.987508 168.562503 219.2875 168.0375 217.587491 167.512497 216.100006 166.737505 214.825 165.7125 213.549994 164.687495 212.525004 163.412508 211.75 161.8875 210.974996 160.362492 210.5875 158.60001 210.5875 156.6L210.5875 156.45C210.5875 154.249989 210.987496 152.337508 211.7875 150.7125 212.587504 149.087492 213.699993 147.737505 215.125 146.6625 216.550007 145.587495 218.24999 144.787503 220.225 144.2625 222.20001 143.737497 224.337489 143.475 226.6375 143.475 229.037512 143.475 231.074992 143.624999 232.75 143.925 234.425008 144.225001 236.037492 144.624998 237.5875 145.125L237.5875 144.375C237.5875 141.624986 236.750008 139.525007 235.075 138.075 233.399992 136.624993 230.987516 135.9 227.8375 135.9 225.587489 135.9 223.587509 136.124998 221.8375 136.575 220.087491 137.025002 218.312509 137.624996 216.5125 138.375L214.0375 131.1C216.237511 130.099995 218.487489 129.300003 220.7875 128.7 223.087512 128.099997 225.862484 127.8 229.1125 127.8 235.012529 127.8 239.387486 129.262485 242.2375 132.1875 245.087514 135.112515 246.5125 139.224974 246.5125 144.525L246.5125 168 237.5125 168zM275.6875 157.2C277.237508 157.2 278.724993 156.937503 280.15 156.4125 281.575007 155.887497 282.812495 155.137505 283.8625 154.1625 284.912505 153.187495 285.749997 152.037507 286.375 150.7125 287.000003 149.387493 287.3125 147.925008 287.3125 146.325L287.3125 146.175C287.3125 144.524992 287.000003 143.037507 286.375 141.7125 285.749997 140.387493 284.912505 139.237505 283.8625 138.2625 282.812495 137.287495 281.575007 136.537503 280.15 136.0125 278.724993 135.487497 277.237508 135.225 275.6875 135.225 274.087492 135.225 272.612507 135.487497 271.2625 136.0125 269.912493 136.537503 268.725005 137.274995 267.7 138.225 266.674995 139.175005 265.875003 140.312493 265.3 141.6375 264.724997 142.962507 264.4375 144.449992 264.4375 146.1L264.4375 146.25C264.4375 147.900008 264.737497 149.387493 265.3375 150.7125 265.937503 152.037507 266.737495 153.187495 267.7375 154.1625 268.737505 155.137505 269.924993 155.887497 271.3 156.4125 272.675007 156.937503 274.137492 157.2 275.6875 157.2zM274.9375 180.15C268.337467 180.15 262.437526 178.575016 257.2375 175.425L260.6125 168.6C262.712511 169.900007 264.912488 170.924996 267.2125 171.675 269.512512 172.425004 272.012487 172.8 274.7125 172.8 278.76252 172.8 281.862489 171.77501 284.0125 169.725 286.162511 167.67499 287.2375 164.65002 287.2375 160.65L287.2375 157.575C285.587492 159.725011 283.662511 161.474993 281.4625 162.825 279.262489 164.175007 276.537516 164.85 273.2875 164.85 270.937488 164.85 268.687511 164.425004 266.5375 163.575 264.387489 162.724996 262.475008 161.512508 260.8 159.9375 259.124992 158.362492 257.787505 156.425012 256.7875 154.125 255.787495 151.824989 255.2875 149.225014 255.2875 146.325L255.2875 146.175C255.2875 143.274986 255.787495 140.662512 256.7875 138.3375 257.787505 136.012488 259.124992 134.062508 260.8 132.4875 262.475008 130.912492 264.399989 129.700004 266.575 128.85 268.750011 127.999996 270.987489 127.575 273.2875 127.575 276.637517 127.575 279.399989 128.237493 281.575 129.5625 283.750011 130.887507 285.612492 132.474991 287.1625 134.325L287.1625 128.4 296.2375 128.4 296.2375 159.9C296.2375 166.500033 294.562517 171.474983 291.2125 174.825 289.412491 176.625009 287.150014 177.962496 284.425 178.8375 281.699986 179.712504 278.537518 180.15 274.9375 180.15zM330.8875 111.075L339.1375 114.75 329.9875 123.375 322.9375 123.375 330.8875 111.075zM326.5375 161.025C328.387509 161.025 330.049993 160.687503 331.525 160.0125 333.000007 159.337497 334.262495 158.425006 335.3125 157.275 336.362505 156.124994 337.162497 154.787508 337.7125 153.2625 338.262503 151.737492 338.5375 150.125009 338.5375 148.425L338.5375 148.275C338.5375 146.524991 338.237503 144.875008 337.6375 143.325 337.037497 141.774992 336.200005 140.425006 335.125 139.275 334.049995 138.124994 332.775007 137.212503 331.3 136.5375 329.824993 135.862497 328.187509 135.525 326.3875 135.525 324.587491 135.525 322.950007 135.862497 321.475 136.5375 319.999993 137.212503 318.737505 138.112494 317.6875 139.2375 316.637495 140.362506 315.837503 141.699992 315.2875 143.25 314.737497 144.800008 314.4625 146.424992 314.4625 148.125L314.4625 148.275C314.4625 150.025009 314.762497 151.662492 315.3625 153.1875 315.962503 154.712508 316.799995 156.062494 317.875 157.2375 318.950005 158.412506 320.224993 159.337497 321.7 160.0125 323.175007 160.687503 324.787491 161.025 326.5375 161.025zM326.3875 168.9C323.387485 168.9 320.600013 168.362505 318.025 167.2875 315.449987 166.212495 313.225009 164.750009 311.35 162.9 309.474991 161.049991 308.012505 158.875012 306.9625 156.375 305.912495 153.874988 305.3875 151.225014 305.3875 148.425L305.3875 148.275C305.3875 145.424986 305.924995 142.750012 307 140.25 308.075005 137.749988 309.549991 135.562509 311.425 133.6875 313.300009 131.812491 315.524987 130.325006 318.1 129.225 320.675013 128.124995 323.487485 127.575 326.5375 127.575 329.587515 127.575 332.399987 128.112495 334.975 129.1875 337.550013 130.262505 339.774991 131.737491 341.65 133.6125 343.525009 135.487509 344.987495 137.662488 346.0375 140.1375 347.087505 142.612512 347.6125 145.274986 347.6125 148.125L347.6125 148.275C347.6125 151.075014 347.075005 153.724987 346 156.225 344.924995 158.725012 343.450009 160.912491 341.575 162.7875 339.699991 164.662509 337.462513 166.149994 334.8625 167.25 332.262487 168.350006 329.437515 168.9 326.3875 168.9zM356.8375 128.4L365.9125 128.4 365.9125 134.55C366.562503 133.599995 367.274996 132.712504 368.05 131.8875 368.825004 131.062496 369.724995 130.325003 370.75 129.675 371.775005 129.024997 372.899994 128.512502 374.125 128.1375 375.350006 127.762498 376.737492 127.575 378.2875 127.575 382.787523 127.575 386.262488 128.949986 388.7125 131.7 391.162512 134.450014 392.3875 138.149977 392.3875 142.8L392.3875 168 383.3125 168 383.3125 145.5C383.3125 142.399985 382.575007 140.012508 381.1 138.3375 379.624993 136.662492 377.537514 135.825 374.8375 135.825 372.187487 135.825 370.037508 136.687491 368.3875 138.4125 366.737492 140.137509 365.9125 142.549984 365.9125 145.65L365.9125 168 356.8375 168 356.8375 128.4z"/>
      </g>
      <g transform="translate(59)">
        <path fill="#F5C023" d="M318.174226,126.000479 L240,126.000844 C240.1666,126.000281 240.333267,126 240.5,126 C286.395254,126 327.293079,147.322501 353.762488,180.569149 L386,230 L86,230 L236,0 L318.174226,126.000479 Z"/>
        <polygon fill="#D0021B" points="225.901 0 236.901 0 86 230 75 230"/>
        <polygon fill="#D0021B" points="203.901 0 214.901 0 64 230 53 230"/>
        <polygon fill="#F5C023" points="214.901 0 225.901 0 75 230 64 230"/>
        <polygon fill="#F5C023" points="192.901 0 203.901 0 53 230 42 230"/>
        <polygon fill="#D0021B" points="182.901 0 193.901 0 43 230 32 230"/>
        <polygon fill="#F5C023" points="171.901 0 182.901 0 32 230 21 230"/>
        <polygon fill="#D0021B" points="161.901 0 172.901 0 22 230 11 230"/>
        <polygon fill="#F5C023" points="150.901 0 161.901 0 11 230 0 230"/>
        <path fill="#D0021B" d="M236.901274,0 L86,230 L236.901274,0 Z"/>
        <path fill="#FFFFFF" d="M364.37148,156.585246 L413.726959,137 L356.2687,150.625677 C338.742876,139.45264 325.032411,137.000055 325,137 L413.726959,137 L381.086185,176.248624 C374.427521,167.256655 368.855952,160.702195 364.37148,156.585246 Z"/>
      </g>
    </g>
  </g>
</svg>
