<svg xmlns="http://www.w3.org/2000/svg" width="960" height="230" viewBox="0 0 960 230">
  <g fill="none" fill-rule="evenodd">
    <rect width="960" height="230" fill="#612D62"/>
    <path fill="#F5C023" d="M318.174226,126.000479 L240,126.000844 C240.1666,126.000281 240.333267,126 240.5,126 C286.395254,126 327.293079,147.322501 353.762488,180.569149 L386,230 L86,230 L236,0 L318.174226,126.000479 Z"/>
    <polygon fill="#D0021B" points="225.901 0 236.901 0 86 230 75 230"/>
    <polygon fill="#D0021B" points="203.901 0 214.901 0 64 230 53 230"/>
    <polygon fill="#F5C023" points="214.901 0 225.901 0 75 230 64 230"/>
    <polygon fill="#F5C023" points="192.901 0 203.901 0 53 230 42 230"/>
    <polygon fill="#D0021B" points="182.901 0 193.901 0 43 230 32 230"/>
    <polygon fill="#F5C023" points="171.901 0 182.901 0 32 230 21 230"/>
    <polygon fill="#D0021B" points="161.901 0 172.901 0 22 230 11 230"/>
    <polygon fill="#F5C023" points="150.901 0 161.901 0 11 230 0 230"/>
    <path fill="#D0021B" d="M236.901274,0 L86,230 L236.901274,0 Z"/>
    <path fill="#FFFFFF" d="M364.37148,156.585246 L413.726959,137 L356.2687,150.625677 C338.742876,139.45264 325.032411,137.000055 325,137 L413.726959,137 L381.086185,176.248624 C374.427521,167.256655 368.855952,160.702195 364.37148,156.585246 Z"/>
    <g fill="#FFFFFF" transform="translate(443 43)">
      <path d="M41.58 37.08L33.21 16.65 24.84 37.08 41.58 37.08zM27-.52651283e-14L39.78-.52651283e-14 66.78 63.45 52.29 63.45 46.53 49.32 19.89 49.32 14.13 63.45.13686838e-13 63.45 27-.52651283e-14zM101.07 50.94C103.890014 50.94 106.469988 50.4900045 108.81 49.59 111.150012 48.6899955 113.144992 47.4000084 114.795 45.72 116.445008 44.0399916 117.734995 42.0600114 118.665 39.78 119.595005 37.4999886 120.06 34.9500141 120.06 32.13L120.06 31.95C120.06 29.1899862 119.595005 26.6400117 118.665 24.3 117.734995 21.9599883 116.445008 19.9500084 114.795 18.27 113.144992 16.5899916 111.150012 15.2850046 108.81 14.355 106.469988 13.4249953 103.890014 12.96 101.07 12.96L90.36 12.96 90.36 50.94 101.07 50.94zM76.5.45L101.07.45C105.990025.45 110.504979 1.24499205 114.615 2.835 118.725021 4.42500795 122.264985 6.6299859 125.235 9.45 128.205015 12.2700141 130.499992 15.5849809 132.12 19.395 133.740008 23.205019 134.55 27.3299778 134.55 31.77L134.55 31.95C134.55 36.3900222 133.740008 40.5299808 132.12 44.37 130.499992 48.2100192 128.205015 51.5399859 125.235 54.36 122.264985 57.1800141 118.725021 59.3999919 114.615 61.02 110.504979 62.6400081 105.990025 63.45 101.07 63.45L76.5 63.45 76.5.45zM146.88.45L194.4.45 194.4 12.78 160.65 12.78 160.65 25.56 190.35 25.56 190.35 37.89 160.65 37.89 160.65 51.12 194.85 51.12 194.85 63.45 146.88 63.45 146.88.45zM207.18.45L221.04.45 221.04 50.85 252.45 50.85 252.45 63.45 207.18 63.45 207.18.45zM299.07 37.08L290.7 16.65 282.33 37.08 299.07 37.08zM284.49-.52651283e-14L297.27-.52651283e-14 324.27 63.45 309.78 63.45 304.02 49.32 277.38 49.32 271.62 63.45 257.49 63.45 284.49-.52651283e-14zM333.99.45L346.77.45 376.29 39.24 376.29.45 389.97.45 389.97 63.45 378.18 63.45 347.67 23.4 347.67 63.45 333.99 63.45 333.99.45zM419.76 13.23L400.59 13.23 400.59.45 452.79.45 452.79 13.23 433.62 13.23 433.62 63.45 419.76 63.45 419.76 13.23zM463.41.45L510.93.45 510.93 12.78 477.18 12.78 477.18 25.56 506.88 25.56 506.88 37.89 477.18 37.89 477.18 51.12 511.38 51.12 511.38 63.45 463.41 63.45 463.41.45zM11.64 116.04C13.506676 116.04 14.9799946 115.573338 16.06 114.64 17.1400054 113.706662 17.68 112.506674 17.68 111.04L17.68 110.96C17.68 109.306658 17.1333388 108.060004 16.04 107.22 14.9466612 106.379996 13.4800092 105.96 11.64 105.96L5.92 105.96 5.92 116.04 11.64 116.04zM1 101.48L12.04 101.48C13.6666748 101.48 15.1399934 101.699998 16.46 102.14 17.7800066 102.580002 18.8999954 103.213329 19.82 104.04 20.7400046 104.866671 21.4466642 105.853328 21.94 107 22.4333358 108.146672 22.68 109.42666 22.68 110.84L22.68 110.92C22.68 112.493341 22.3866696 113.873327 21.8 115.06 21.2133304 116.246673 20.4133384 117.239996 19.4 118.04 18.3866616 118.840004 17.2000068 119.446665 15.84 119.86 14.4799932 120.273335 13.0266744 120.48 11.48 120.48L5.92 120.48 5.92 129.48 1 129.48 1 101.48zM41.16 125.44C42.5466736 125.44 43.8199942 125.180003 44.98 124.66 46.1400058 124.139997 47.1333292 123.433338 47.96 122.54 48.7866708 121.646662 49.433331 120.600006 49.9 119.4 50.366669 118.199994 50.6 116.920007 50.6 115.56L50.6 115.48C50.6 114.119993 50.366669 112.833339 49.9 111.62 49.433331 110.406661 48.7800042 109.353338 47.94 108.46 47.0999958 107.566662 46.0933392 106.853336 44.92 106.32 43.7466608 105.786664 42.4666736 105.52 41.08 105.52 39.6933264 105.52 38.4200058 105.779997 37.26 106.3 36.0999942 106.820003 35.1066708 107.526662 34.28 108.42 33.4533292 109.313338 32.806669 110.359994 32.34 111.56 31.873331 112.760006 31.64 114.039993 31.64 115.4L31.64 115.48C31.64 116.840007 31.873331 118.126661 32.34 119.34 32.806669 120.553339 33.4599958 121.606662 34.3 122.5 35.1400042 123.393338 36.1466608 124.106664 37.32 124.64 38.4933392 125.173336 39.7733264 125.44 41.16 125.44zM41.08 129.96C38.9199892 129.96 36.9466756 129.580004 35.16 128.82 33.3733244 128.059996 31.8400064 127.026673 30.56 125.72 29.2799936 124.413327 28.2800036 122.886675 27.56 121.14 26.8399964 119.393325 26.48 117.533343 26.48 115.56L26.48 115.48C26.48 113.506657 26.8399964 111.646675 27.56 109.9 28.2800036 108.153325 29.2933268 106.620007 30.6 105.3 31.9066732 103.979993 33.4533244 102.933337 35.24 102.16 37.0266756 101.386663 38.9999892 101 41.16 101 43.3200108 101 45.2933244 101.379996 47.08 102.14 48.8666756 102.900004 50.3999936 103.933327 51.68 105.24 52.9600064 106.546673 53.9599964 108.073325 54.68 109.82 55.4000036 111.566675 55.76 113.426657 55.76 115.4L55.76 115.48C55.76 117.453343 55.4000036 119.313325 54.68 121.06 53.9599964 122.806675 52.9466732 124.339993 51.64 125.66 50.3333268 126.980007 48.7866756 128.026663 47 128.8 45.2133244 129.573337 43.2400108 129.96 41.08 129.96zM73.84 115.36C75.6000088 115.36 76.9999948 114.940004 78.04 114.1 79.0800052 113.259996 79.6 112.120007 79.6 110.68L79.6 110.6C79.6 109.079992 79.0933384 107.926671 78.08 107.14 77.0666616 106.353329 75.6400092 105.96 73.8 105.96L66.64 105.96 66.64 115.36 73.84 115.36zM61.72 101.48L74.2 101.48C75.9600088 101.48 77.5199932 101.726664 78.88 102.22 80.2400068 102.713336 81.3733288 103.399996 82.28 104.28 83.0266704 105.053337 83.599998 105.946662 84 106.96 84.400002 107.973338 84.6 109.093327 84.6 110.32L84.6 110.4C84.6 111.546672 84.433335 112.579995 84.1 113.5 83.766665 114.420005 83.3066696 115.23333 82.72 115.94 82.1333304 116.64667 81.4333374 117.246664 80.62 117.74 79.8066626 118.233336 78.9066716 118.613332 77.92 118.88L85.48 129.48 79.68 129.48 72.8 119.72 66.64 119.72 66.64 129.48 61.72 129.48 61.72 101.48zM139.3 110.075L130.225 89.075 121.225 110.075 139.3 110.075zM126.1 78.05L134.65 78.05 157.75 130.925 148 130.925 142.675 118.25 117.85 118.25 112.45 130.925 103 130.925 126.1 78.05zM165.7 91.325L174.775 91.325 174.775 100.25C176.025006 97.249985 177.799988 94.850009 180.1 93.05 182.400011 91.249991 185.299982 90.4249992 188.8 90.575L188.8 100.175 188.275 100.175C186.27499 100.175 184.450008 100.499997 182.8 101.15 181.149992 101.800003 179.725006 102.774993 178.525 104.075 177.324994 105.375006 176.400003 107.01249 175.75 108.9875 175.099997 110.96251 174.775 113.249987 174.775 115.85L174.775 130.925 165.7 130.925 165.7 91.325zM221.125 114.35C219.974994 113.899998 218.612508 113.525001 217.0375 113.225 215.462492 112.924998 213.800009 112.775 212.05 112.775 209.199986 112.775 206.975008 113.324994 205.375 114.425 203.774992 115.525005 202.975 117.02499 202.975 118.925L202.975 119.075C202.975 120.975009 203.712493 122.424995 205.1875 123.425 206.662507 124.425005 208.474989 124.925 210.625 124.925 212.125007 124.925 213.512494 124.725002 214.7875 124.325 216.062506 123.924998 217.174995 123.362504 218.125 122.6375 219.075005 121.912496 219.812497 121.037505 220.3375 120.0125 220.862503 118.987495 221.125 117.850006 221.125 116.6L221.125 114.35zM220.9 130.925L220.9 126.05C219.549993 127.650008 217.82501 128.999994 215.725 130.1 213.624989 131.200005 211.075015 131.75 208.075 131.75 206.17499 131.75 204.375008 131.487503 202.675 130.9625 200.974991 130.437497 199.487506 129.662505 198.2125 128.6375 196.937494 127.612495 195.912504 126.337508 195.1375 124.8125 194.362496 123.287492 193.975 121.52501 193.975 119.525L193.975 119.375C193.975 117.174989 194.374996 115.262508 195.175 113.6375 195.975004 112.012492 197.087493 110.662505 198.5125 109.5875 199.937507 108.512495 201.63749 107.712503 203.6125 107.1875 205.58751 106.662497 207.724988 106.4 210.025 106.4 212.425012 106.4 214.462492 106.549998 216.1375 106.85 217.812508 107.150001 219.424992 107.549997 220.975 108.05L220.975 107.3C220.975 104.549986 220.137508 102.450007 218.4625 101 216.787492 99.5499927 214.375016 98.825 211.225 98.825 208.974989 98.825 206.975009 99.0499977 205.225 99.5 203.474991 99.9500022 201.700009 100.549996 199.9 101.3L197.425 94.025C199.625011 93.024995 201.874988 92.225003 204.175 91.625 206.475011 91.024997 209.249984 90.725 212.5 90.725 218.400029 90.725 222.774986 92.1874854 225.625 95.1125 228.475014 98.0375146 229.9 102.149973 229.9 107.45L229.9 130.925 220.9 130.925zM259.075 120.125C260.625008 120.125 262.112493 119.862503 263.5375 119.3375 264.962507 118.812497 266.199995 118.062505 267.25 117.0875 268.300005 116.112495 269.137497 114.962507 269.7625 113.6375 270.387503 112.312493 270.7 110.850008 270.7 109.25L270.7 109.1C270.7 107.449992 270.387503 105.962507 269.7625 104.6375 269.137497 103.312493 268.300005 102.162505 267.25 101.1875 266.199995 100.212495 264.962507 99.4625026 263.5375 98.9375 262.112493 98.4124974 260.625008 98.15 259.075 98.15 257.474992 98.15 256.000007 98.4124974 254.65 98.9375 253.299993 99.4625026 252.112505 100.199995 251.0875 101.15 250.062495 102.100005 249.262503 103.237493 248.6875 104.5625 248.112497 105.887507 247.825 107.374992 247.825 109.025L247.825 109.175C247.825 110.825008 248.124997 112.312493 248.725 113.6375 249.325003 114.962507 250.124995 116.112495 251.125 117.0875 252.125005 118.062505 253.312493 118.812497 254.6875 119.3375 256.062507 119.862503 257.524992 120.125 259.075 120.125zM258.325 143.075C251.724967 143.075 245.825026 141.500016 240.625 138.35L244 131.525C246.10001 132.825006 248.299988 133.849996 250.6 134.6 252.900011 135.350004 255.399986 135.725 258.1 135.725 262.15002 135.725 265.249989 134.70001 267.4 132.65 269.550011 130.59999 270.625 127.57502 270.625 123.575L270.625 120.5C268.974992 122.650011 267.050011 124.399993 264.85 125.75 262.649989 127.100007 259.925016 127.775 256.675 127.775 254.324988 127.775 252.075011 127.350004 249.925 126.5 247.774989 125.649996 245.862508 124.437508 244.1875 122.8625 242.512492 121.287492 241.175005 119.350011 240.175 117.05 239.174995 114.749988 238.675 112.150014 238.675 109.25L238.675 109.1C238.675 106.199985 239.174995 103.587512 240.175 101.2625 241.175005 98.9374884 242.512492 96.9875079 244.1875 95.4125 245.862508 93.8374921 247.787489 92.6250042 249.9625 91.775 252.137511 90.9249957 254.374988 90.5 256.675 90.5 260.025017 90.5 262.787489 91.1624934 264.9625 92.4875 267.137511 93.8125066 268.999992 95.3999907 270.55 97.25L270.55 91.325 279.625 91.325 279.625 122.825C279.625 129.425033 277.950017 134.399983 274.6 137.75 272.799991 139.550009 270.537514 140.887496 267.8125 141.7625 265.087486 142.637504 261.925018 143.075 258.325 143.075zM314.275 74L322.525 77.675 313.375 86.3 306.325 86.3 314.275 74zM309.925 123.95C311.775009 123.95 313.437493 123.612503 314.9125 122.9375 316.387507 122.262497 317.649995 121.350006 318.7 120.2 319.750005 119.049994 320.549997 117.712508 321.1 116.1875 321.650003 114.662492 321.925 113.050008 321.925 111.35L321.925 111.2C321.925 109.449991 321.625003 107.800008 321.025 106.25 320.424997 104.699992 319.587505 103.350006 318.5125 102.2 317.437495 101.049994 316.162507 100.137503 314.6875 99.4625 313.212493 98.7874966 311.575009 98.45 309.775 98.45 307.974991 98.45 306.337507 98.7874966 304.8625 99.4625 303.387493 100.137503 302.125005 101.037494 301.075 102.1625 300.024995 103.287506 299.225003 104.624992 298.675 106.175 298.124997 107.725008 297.85 109.349991 297.85 111.05L297.85 111.2C297.85 112.950009 298.149997 114.587492 298.75 116.1125 299.350003 117.637508 300.187495 118.987494 301.2625 120.1625 302.337505 121.337506 303.612493 122.262497 305.0875 122.9375 306.562507 123.612503 308.174991 123.95 309.925 123.95zM309.775 131.825C306.774985 131.825 303.987513 131.287505 301.4125 130.2125 298.837487 129.137495 296.612509 127.675009 294.7375 125.825 292.862491 123.974991 291.400005 121.800012 290.35 119.3 289.299995 116.799987 288.775 114.150014 288.775 111.35L288.775 111.2C288.775 108.349986 289.312495 105.675012 290.3875 103.175 291.462505 100.674987 292.937491 98.4875094 294.8125 96.6125 296.687509 94.7374906 298.912487 93.2500055 301.4875 92.15 304.062513 91.0499945 306.874985 90.5 309.925 90.5 312.975015 90.5 315.787487 91.0374946 318.3625 92.1125 320.937513 93.1875054 323.162491 94.6624906 325.0375 96.5375 326.912509 98.4125094 328.374995 100.587488 329.425 103.0625 330.475005 105.537512 331 108.199986 331 111.05L331 111.2C331 114.000014 330.462505 116.649987 329.3875 119.15 328.312495 121.650012 326.837509 123.837491 324.9625 125.7125 323.087491 127.587509 320.850013 129.074994 318.25 130.175 315.649987 131.275005 312.825015 131.825 309.775 131.825zM340.225 91.325L349.3 91.325 349.3 97.475C349.950003 96.5249952 350.662496 95.6375041 351.4375 94.8125 352.212504 93.9874959 353.112495 93.2500032 354.1375 92.6 355.162505 91.9499967 356.287494 91.4375019 357.5125 91.0625 358.737506 90.6874981 360.124992 90.5 361.675 90.5 366.175022 90.5 369.649988 91.8749862 372.1 94.625 374.550012 97.3750137 375.775 101.074977 375.775 105.725L375.775 130.925 366.7 130.925 366.7 108.425C366.7 105.324984 365.962507 102.937508 364.4875 101.2625 363.012493 99.5874916 360.925013 98.75 358.225 98.75 355.574987 98.75 353.425008 99.6124914 351.775 101.3375 350.124992 103.062509 349.3 105.474984 349.3 108.575L349.3 130.925 340.225 130.925 340.225 91.325z"/>
    </g>
  </g>
</svg>
